<?xml version="1.0"?>
<svg xmlns="http://www.w3.org/2000/svg" width="200" height="144" viewBox="0 0 490 355">
<path d="m487.2 2.85-176.7.326c-80.5 0-156.5 17.17-213.9 48.37-60.47 32.83-93.85 77.65-93.85 126.2 0 48.4 33.38 93.2 93.8 126 57.45 31.2 133.4 48.4 213.8 48.4l174.1-.1.7-142.7-26.5 22.5c-33.4 28.5-88.8 45.6-148.2 45.6-64.1 0-123.4-20.5-154.6-51.5l328.9-49.7-326.7-49.1c31.7-30.03 89.1-49.21 152.4-49.21 60.6 0 116.7 17.61 149.9 47.01l26.4 23.4" fill="#231f20"/>
<path d="m123.1 216.7-3.7-6.6 230.3-33.2-229.2-34 4-6.8c13.8-23.2 38.7-43.04 72.1-57.34 33.6-14.42 73.3-22.06 114.8-22.06 60.3 0 117 16.56 154.5 44.6l.8.6.2-77.8-155.5.30c-78.9 0-150.5 17.14-202.4 44.85-51.88 27.71-84.13 66.05-84.13 108.4 0 42.4 32.25 80.8 84.13 108.5 51.9 27.8 123.5 44.9 202.4 44.8l152.9-.1.3-75.9-.8.6c-37.4 27.1-93.3 43.1-152.4 43.2-85.5 0-161.1-33.1-188.3-82zm355.4-204.1-167 .32c-78.9 0-153.3 16.75-209.3 47.19-57.19 31.04-88.77 72.83-88.77 117.6 0 44.8 31.58 86.5 88.77 117.6 56 30.4 130.2 47.2 209.2 47.2l164.5-.2.5-111.9-10.4 8.9c-35.1 29.9-92.9 47.8-154.5 47.8-76.6 0-144.5-27.1-173.3-68.1l291.1-41.9-289.4-43c29.7-39.69 96.9-65.94 171.6-65.94 62.9 0 121.4 18.53 156.3 49.44l10.3 9.2z" fill-rule="evenodd" fill="#bb8d0a"/>
</svg>