<svg xmlns="http://www.w3.org/2000/svg" viewBox="0 0 48 56" role="img" aria-label="Emporia State University">
  <defs>
    <linearGradient id="esuGold" x1="0" y1="0" x2="1" y2="1">
      <stop offset="0" stop-color="#f4c542"/>
      <stop offset="0.55" stop-color="#bb8d0a"/>
      <stop offset="1" stop-color="#8a6708"/>
    </linearGradient>
    <linearGradient id="esuShine" x1="0" y1="0" x2="1" y2="1">
      <stop offset="0" stop-color="#fff3cf" stop-opacity="0.9"/>
      <stop offset="0.4" stop-color="#fff3cf" stop-opacity="0"/>
    </linearGradient>
  </defs>
  <path d="M24 1.5 L45 8 V27 C45 41 35.5 50 24 54.5 C12.5 50 3 41 3 27 V8 Z"
        fill="url(#esuGold)" stroke="#5e4705" stroke-width="1.2"/>
  <path d="M24 1.5 L45 8 V27 C45 41 35.5 50 24 54.5 C12.5 50 3 41 3 27 V8 Z"
        fill="url(#esuShine)"/>
  <path d="M24 5 L41.5 10.4 V26.8 C41.5 38.8 33.4 46.7 24 50.8 C14.6 46.7 6.5 38.8 6.5 26.8 V10.4 Z"
        fill="none" stroke="#1a1200" stroke-width="1" opacity="0.55"/>
  <text x="24" y="32" text-anchor="middle" font-family="Georgia, 'Times New Roman', serif"
        font-weight="700" font-size="16.5" letter-spacing="0.5" fill="#161009">ESU</text>
  <rect x="13" y="37" width="22" height="2.4" rx="1.2" fill="#161009" opacity="0.8"/>
</svg>
