<?xml version="1.0" encoding="UTF-8" standalone="no"?>
<!-- Created with Inkscape (http://www.inkscape.org/) -->

<svg
   xmlns:dc="http://purl.org/dc/elements/1.1/"
   xmlns:cc="http://creativecommons.org/ns#"
   xmlns:rdf="http://www.w3.org/1999/02/22-rdf-syntax-ns#"
   xmlns:svg="http://www.w3.org/2000/svg"
   xmlns="http://www.w3.org/2000/svg"
   xmlns:sodipodi="http://sodipodi.sourceforge.net/DTD/sodipodi-0.dtd"
   xmlns:inkscape="http://www.inkscape.org/namespaces/inkscape"
   width="117.14141mm"
   height="19.178246mm"
   viewBox="0 0 415.06799 67.954413"
   id="svg2"
   version="1.1"
   inkscape:version="0.91 r13725"
   sodipodi:docname="seal.svg">
  <defs
     id="defs4" />
  <sodipodi:namedview
     id="base"
     pagecolor="#ffffff"
     bordercolor="#666666"
     borderopacity="1.0"
     inkscape:pageopacity="0.0"
     inkscape:pageshadow="2"
     inkscape:zoom="1"
     inkscape:cx="155.92413"
     inkscape:cy="132.36517"
     inkscape:document-units="px"
     inkscape:current-layer="layer1"
     showgrid="false"
     fit-margin-top="0"
     fit-margin-left="0"
     fit-margin-right="0"
     fit-margin-bottom="0"
     inkscape:window-width="1920"
     inkscape:window-height="1057"
     inkscape:window-x="-8"
     inkscape:window-y="-8"
     inkscape:window-maximized="1" />
  <metadata
     id="metadata7">
    <rdf:RDF>
      <cc:Work
         rdf:about="">
        <dc:format>image/svg+xml</dc:format>
        <dc:type
           rdf:resource="http://purl.org/dc/dcmitype/StillImage" />
        <dc:title></dc:title>
      </cc:Work>
    </rdf:RDF>
  </metadata>
  <g
     inkscape:label="Calque 1"
     inkscape:groupmode="layer"
     id="layer1"
     transform="translate(1186.8572,-748.15677)">
    <path
       style="fill:#512698;fill-opacity:1"
       d="m -949.73377,816.04478 c -7.60941,-1.11454 -11.59188,-5.27802 -11.59188,-12.11877 0,-3.15297 0.78153,-5.31411 2.66834,-7.37858 2.46957,-2.7021 5.99836,-4.35932 14.1167,-6.6296 9.50352,-2.65766 11.7636,-3.56044 13.36087,-5.33698 0.98918,-1.10023 1.20902,-1.75571 1.33236,-3.97284 0.3247,-5.83716 -2.16325,-8.43805 -8.61926,-9.01047 -2.60094,-0.23062 -6.3595,0.008 -8.29961,0.52581 -1.60742,0.42942 -3.55743,1.38233 -4.71541,2.30426 l -1.00603,0.80094 1.15895,0.38746 c 2.37982,0.79564 3.34608,2.15174 3.35285,4.7056 0.005,1.73493 -0.22058,2.43172 -1.11521,3.45064 -1.55773,1.77415 -4.94187,2.41588 -7.01396,1.33005 -1.41382,-0.74087 -2.51659,-2.71541 -2.81343,-5.03753 -0.72706,-5.68742 3.14733,-10.00275 10.95026,-12.19645 6.01606,-1.69133 14.64041,-1.28972 19.24313,0.8961 3.83637,1.82189 5.86567,4.55643 7.02662,9.46861 0.26467,1.11986 0.32233,3.26979 0.4277,15.94651 0.13124,15.79059 0.1059,15.41727 1.12962,16.64263 0.46803,0.56021 0.58896,0.60564 1.59797,0.60028 3.14101,-0.0167 4.50633,-3.08842 4.51088,-10.14868 l 0.001,-2.36475 2.31837,0 2.31838,0 -0.002,2.45748 c -0.004,7.33917 -1.69884,11.83003 -5.10744,13.53774 -2.00649,1.00524 -2.77152,1.15986 -5.74104,1.16032 l -2.78205,3.7e-4 -1.3921,-0.66485 c -2.30322,-1.10002 -3.80457,-2.97151 -4.55813,-5.68194 l -0.32038,-1.15231 -1.61433,1.53625 c -3.10466,2.95449 -6.37407,4.68487 -10.59945,5.60991 -1.31932,0.28884 -6.96371,0.51721 -8.22329,0.33273 z m 9.54688,-5.25415 c 2.58453,-0.8659 4.4298,-2.02677 6.50427,-4.09187 1.37144,-1.36524 1.94204,-2.09605 2.53419,-3.24572 1.25737,-2.44117 1.35268,-3.06414 1.35268,-8.84137 l 0,-5.07842 -1.80833,0.86451 c -0.99458,0.47548 -3.81141,1.59521 -6.25961,2.48829 -7.65181,2.79131 -10.36279,4.10642 -12.15265,5.89532 -1.3517,1.35099 -1.73054,2.27826 -1.81477,4.44188 -0.1653,4.24717 1.7509,7.08441 5.4358,8.0485 1.5545,0.4067 4.16144,0.20468 6.20842,-0.48112 z m 147.08255,5.25312 c -4.79853,-0.58904 -9.60388,-2.557 -12.69171,-5.19771 -0.40089,-0.34284 -0.78793,-0.62335 -0.86008,-0.62335 -0.0722,0 -0.52711,1.12673 -1.011,2.50385 l -0.87978,2.50384 -2.5723,0 -2.5723,0 0,-9.64444 0,-9.64444 2.5519,0 2.5519,0 0.34364,1.52893 c 0.18901,0.84091 0.65317,2.24685 1.03145,3.1243 2.24013,5.19603 6.48873,8.79688 12.16085,10.30681 1.60242,0.42657 2.23313,0.49514 4.63675,0.50411 2.12962,0.008 3.06476,-0.0677 3.9876,-0.32245 2.83463,-0.78261 4.97212,-2.35503 5.89552,-4.33697 0.73869,-1.58547 0.81253,-3.89956 0.16928,-5.30463 -1.30074,-2.84115 -4.12903,-4.12905 -12.72267,-5.79342 -9.71349,-1.88126 -13.38936,-3.21753 -16.32349,-5.93402 -1.44565,-1.33842 -2.36879,-2.75758 -3.06197,-4.7072 -0.53157,-1.49515 -0.56353,-1.74187 -0.56536,-4.36673 -0.002,-3.13273 0.1985,-4.0665 1.35556,-6.30599 0.79633,-1.5413 2.93953,-3.76795 4.52626,-4.70252 3.03895,-1.78989 7.17245,-2.79824 11.50096,-2.80561 5.17035,-0.009 10.37006,1.65912 14.23396,4.56588 l 1.31051,0.98588 0.18667,-0.50557 c 0.10268,-0.27807 0.49488,-1.31933 0.87155,-2.31391 l 0.68488,-1.80833 2.27514,0 2.27517,0 0,9.18076 0,9.18077 -2.41112,0 c -2.39582,0 -2.41111,-0.003 -2.41111,-0.42874 0,-0.85338 -0.77342,-3.35316 -1.49902,-4.84495 -3.00328,-6.17458 -10.08182,-10.04439 -16.9111,-9.24522 -4.48535,0.52487 -6.98796,2.67477 -7.56675,6.50026 -0.5727,3.78537 1.41276,5.9942 6.78829,7.55197 0.90191,0.26136 4.14481,0.976 7.20644,1.58808 9.71704,1.94263 12.94859,3.19557 15.98908,6.19928 0.9851,0.97318 1.50256,1.67983 2.04119,2.78744 l 0.72153,1.48376 0.0563,3.9105 c 0.0545,3.7842 0.0414,3.95012 -0.40527,5.13688 -1.73333,4.60505 -5.77543,7.57956 -12.17031,8.95591 -1.35463,0.29155 -7.23527,0.51889 -8.71709,0.33699 z m -368.34346,-0.917 c 0,-0.061 -0.3833,-1.41886 -0.8518,-3.01751 -0.4685,-1.59865 -1.0582,-3.61605 -1.3104,-4.48313 -0.2523,-0.86707 -0.7532,-2.57803 -1.1132,-3.80213 -0.3599,-1.2241 -0.8489,-2.89333 -1.0867,-3.7094 -1.0771,-3.69733 -4.1172,-14.09116 -6.0215,-20.58717 -0.8373,-2.85624 -1.8386,-6.27817 -2.225,-7.60428 -0.3864,-1.32611 -1.2618,-4.33072 -1.9453,-6.67692 -2.5193,-8.64759 -2.8756,-9.45381 -4.5965,-10.39864 -0.9189,-0.50449 -1.1203,-0.53824 -3.6161,-0.60616 l -2.6429,-0.0719 0,-2.57596 0,-2.57595 13.9103,0 13.9102,0 0,2.59658 0,2.59658 -3.2992,0 c -3.0525,0 -3.361,0.0312 -4.1267,0.4173 -1.5702,0.79184 -1.8065,2.23376 -0.9194,5.61047 1.3738,5.22922 11.569,42.52098 11.6825,42.73189 0.086,0.15964 0.7593,-1.62191 1.7526,-4.63675 0.8873,-2.6928 2.8515,-8.65177 4.365,-13.24215 1.5135,-4.59039 3.8923,-11.8062 5.2864,-16.03513 l 2.5345,-7.68898 -0.392,-1.19421 c -0.5335,-1.6252 -1.6491,-3.46794 -2.7274,-4.50511 -1.4436,-1.3885 -1.6781,-1.45733 -4.9663,-1.45733 l -2.884,0 0,-2.59658 0,-2.59658 14.3739,0 14.3739,0 0,2.58265 0,2.58266 -3.663,0.0603 c -4.0715,0.067 -4.5421,0.1852 -5.2605,1.32122 -0.7196,1.13784 -0.4596,2.46942 2.3068,11.81471 1.3739,4.64139 2.5803,8.731 2.681,9.08803 0.1007,0.35703 0.4801,1.65068 0.8431,2.87478 0.3631,1.22411 1.5425,5.23026 2.621,8.90257 2.8869,9.83049 4.1166,13.99637 4.2919,14.53957 0.046,0.14211 0.1158,0.22557 0.1555,0.18547 0.076,-0.0768 1.1462,-3.59056 3.073,-10.08829 1.2318,-4.15384 1.7469,-5.87805 6.1232,-20.49444 3.734,-12.47113 3.9323,-13.25003 3.858,-15.1501 -0.054,-1.38807 -0.1062,-1.56682 -0.6053,-2.08771 -0.3002,-0.31331 -0.8427,-0.65213 -1.2056,-0.75292 -0.3628,-0.1008 -2.2663,-0.18373 -4.23,-0.1843 l -3.5703,-0.001 0,-2.59658 0,-2.59658 12.612,0 12.612,0 0,2.57879 0,2.5788 -2.5503,0.0693 c -2.3229,0.0631 -2.6328,0.11284 -3.4775,0.55763 -1.0893,0.57359 -1.9532,1.43525 -2.4753,2.46887 -0.206,0.40804 -1.0577,2.99535 -1.8925,5.74957 -1.9356,6.38591 -3.9187,12.90268 -6.2084,20.40171 -0.9967,3.26427 -2.4991,8.1885 -3.3387,10.94273 -0.8396,2.75423 -2.3412,7.67846 -3.3369,10.94273 -0.9956,3.26427 -2.0753,6.81139 -2.3992,7.88248 l -0.589,1.94743 -4.0079,0.0499 -4.0079,0.0499 -0.3083,-1.07003 c -0.1696,-0.58851 -1.1843,-3.94945 -2.255,-7.46874 -1.861,-6.11672 -2.6493,-8.71626 -4.6823,-15.44038 -0.5012,-1.65764 -1.5101,-4.97524 -2.242,-7.37244 -2.4806,-8.12486 -3.7092,-12.21868 -3.7092,-12.35991 0,-0.56645 -0.5419,0.86395 -1.9072,5.03385 -0.8683,2.65222 -3.3356,10.16375 -5.4829,16.6923 -2.1472,6.52854 -4.6434,14.12354 -5.5472,16.87777 l -1.6431,5.00769 -4.0234,0.05 c -2.2129,0.0275 -4.0235,9e-5 -4.0235,-0.0609 z m 70.1077,-2.75573 0,-2.30294 4.1267,-0.0618 c 3.9524,-0.0592 4.1562,-0.0802 4.8267,-0.497 1.433,-0.89097 1.3401,0.35794 1.3401,-18.01906 0,-16.0801 -0.01,-16.42694 -0.3709,-17.04515 -0.204,-0.34708 -0.7048,-0.80612 -1.1128,-1.02009 -0.675,-0.35395 -1.1056,-0.39437 -4.7759,-0.44836 l -4.0339,-0.0593 0,-2.3054 0,-2.30541 9.4589,0 9.459,0 0,19.24251 c 0,10.88125 0.078,19.55864 0.1732,19.97005 0.2115,0.91196 0.7008,1.5773 1.511,2.05452 0.5678,0.33445 1.0266,0.37678 4.6638,0.43027 l 4.0339,0.0593 0,2.30541 0,2.3054 -14.6521,0 -14.6521,0 0,-2.30295 z m 33.0136,0 0,-2.30294 4.1267,-0.0618 c 4.7556,-0.0712 5.0981,-0.16708 5.8423,-1.63546 l 0.4173,-0.8233 0,-25.26529 c 0,-17.28174 -0.062,-25.43027 -0.1958,-25.7874 -0.3914,-1.04351 -1.1477,-1.90249 -2.0872,-2.37068 -0.911,-0.45399 -1.0634,-0.46981 -4.523,-0.46981 l -3.5803,0 0,-2.31838 0,-2.31837 9.459,0 9.459,0 0,28.73872 c 0,20.70484 0.059,29.01259 0.2101,29.71838 0.2529,1.17916 1.0429,2.05871 2.1169,2.35691 0.4177,0.11595 2.3098,0.204 4.3963,0.20459 l 3.663,10e-4 0,2.31838 0,2.31837 -14.6521,0 -14.6522,0 0,-2.30295 z m 33.0137,-0.002 0,-2.30541 4.034,-0.0593 c 4.8081,-0.0707 5.2106,-0.18704 5.9814,-1.72857 l 0.4636,-0.92735 0,-25.13119 0,-25.13119 -0.4062,-0.87961 c -0.4797,-1.0385 -1.1687,-1.73113 -2.1903,-2.20171 -0.6381,-0.29392 -1.2414,-0.3423 -4.3122,-0.3458 l -3.5703,-0.004 0,-2.31838 0,-2.31837 9.459,0 9.4589,0 0,28.73872 c 0,20.70484 0.059,29.01259 0.2101,29.71838 0.2529,1.17916 1.0429,2.05871 2.117,2.35692 0.4176,0.11594 2.3097,0.20399 4.39622,0.20458 l 3.66304,10e-4 0,2.31838 0,2.31838 -14.65216,0 -14.6521,0 0,-2.30541 z m 33.01366,0.002 0,-2.30294 4.1267,-0.0618 c 4.82017,-0.0722 5.09559,-0.15329 5.88868,-1.73413 l 0.46367,-0.92424 0,-15.85769 0,-15.85769 -0.46367,-0.92424 c -0.79309,-1.58084 -1.06851,-1.66195 -5.88868,-1.73413 l -4.1267,-0.0618 0,-2.30295 0,-2.30295 9.45897,0 9.45897,0 0,19.09428 c 0,13.52152 0.0613,19.3802 0.2101,20.07394 0.25289,1.17916 1.0429,2.05871 2.11697,2.35691 0.41763,0.11595 2.30973,0.204 4.39622,0.20459 l 3.66303,0.001 0,2.31838 0,2.31837 -14.65213,0 -14.65213,0 0,-2.30295 z m 85.68715,0 0,-2.30294 4.12671,-0.0618 c 3.95245,-0.0592 4.15627,-0.0802 4.8267,-0.497 1.43306,-0.89097 1.34017,0.35794 1.34017,-18.01906 l 0,-16.4141 -0.42023,-0.67576 c -0.76564,-1.23123 -1.28017,-1.35668 -5.83938,-1.42374 l -4.03397,-0.0593 0,-2.3054 0,-2.30541 9.45556,0 9.45554,0 0.0498,4.26722 0.0498,4.26721 1.2983,-1.79623 c 4.21072,-5.82571 8.51741,-8.22196 14.77697,-8.22196 3.80593,0 7.01466,1.18139 9.45096,3.47967 1.73833,1.63986 2.69386,3.1339 3.79851,5.93932 0.15597,0.39607 0.23811,0.33111 1.26011,-0.99657 3.27801,-4.25852 6.72297,-6.78081 10.78499,-7.8964 1.96991,-0.54102 7.36924,-0.59933 9.54169,-0.10305 4.48514,1.0246 7.49898,3.91245 8.96425,8.58951 1.03839,3.31445 1.1008,4.25786 1.21968,18.43708 l 0.10965,13.07564 0.46368,0.92424 c 0.78107,1.55689 1.11367,1.66149 5.51773,1.73519 l 3.75577,0.0629 0,2.30188 0,2.30189 -13.44658,0 -13.44657,0 0,-2.31837 0,-2.31838 2.82841,-10e-4 c 3.23143,-10e-4 4.05638,-0.16975 4.8848,-0.99817 1.0108,-1.01078 1.026,-1.27091 0.95692,-16.36324 -0.0686,-14.97907 -0.0174,-14.2635 -1.17123,-16.38342 -2.10722,-3.87163 -7.83551,-5.06085 -12.64405,-2.62495 -3.49831,1.77217 -6.27699,5.07029 -7.69606,9.13477 l -0.60537,1.73392 -0.0572,10.79584 c -0.0591,11.15608 0.009,12.50157 0.6801,13.408 0.77614,1.0485 1.34015,1.20031 4.70936,1.26755 l 3.10663,0.062 0,2.30274 0,2.30275 -12.7047,0 -12.7047,0 0,-2.30275 0,-2.30274 3.10662,-0.062 c 3.67858,-0.0734 4.11297,-0.22815 4.86859,-1.73434 l 0.46368,-0.92424 0,-13.44658 c 0,-12.15927 -0.0308,-13.56643 -0.3219,-14.6985 -1.18028,-4.59024 -4.57247,-7.08655 -9.19891,-6.76944 -2.82094,0.19335 -5.32321,1.3943 -7.63174,3.66282 -2.32257,2.28233 -3.89326,4.94656 -4.63723,7.86578 -0.35384,1.38842 -0.37365,2.03961 -0.36946,12.14828 0.002,5.87468 0.0803,11.00862 0.17316,11.40876 0.21151,0.91196 0.70083,1.5773 1.51102,2.05452 0.54808,0.32282 1.03274,0.37898 3.73639,0.43294 l 3.10662,0.062 0,2.30274 0,2.30275 -13.72478,0 -13.72478,0 0,-2.30295 z m -172.53641,-53.71651 c -1.6364,-0.4062 -2.873,-1.40021 -3.6822,-2.96 -0.6195,-1.19409 -0.6186,-3.25712 0,-4.51774 0.5357,-1.08829 1.4269,-2.01197 2.4825,-2.57301 0.6347,-0.33738 1.0823,-0.41634 2.3598,-0.41634 1.8002,0 2.5762,0.30789 3.7527,1.48899 1.1118,1.11613 1.5343,2.16567 1.5267,3.79246 -0.01,1.58967 -0.5095,2.79453 -1.5998,3.839 -1.1833,1.13346 -3.3135,1.72596 -4.8417,1.34664 z m 99.04104,0 c -1.64008,-0.4071 -2.88265,-1.40776 -3.67558,-2.96 -0.57924,-1.1339 -0.59975,-3.24454 -0.0433,-4.45128 0.45715,-0.99134 1.53388,-2.10857 2.56253,-2.6589 1.08113,-0.5784 3.57288,-0.56805 4.67819,0.0194 2.40875,1.28026 3.57219,4.03073 2.75089,6.50339 -0.82334,2.47887 -3.79869,4.16148 -6.27276,3.54736 z"
       id="path4147"
       inkscape:connector-curvature="0" />
  </g>
</svg>
